#!OML:ASF F:\VICON\USERDATA\INSTALL\rory3\rory3.ASF
:FULLY-SPECIFIED
:DEGREES
579
root 0.561763 15.4924 3.23981 9.8784 -33.9207 13.1831
lowerback 0.383089 6.42898 8.90877
upperback 3.20712 8.48916 -1.74191
thorax 4.72387 4.5705 -6.33976
lowerneck 3.31296 -10.3821 -11.6374
upperneck 47.0462 -19.0429 7.62838
head 20.1754 -9.00199 2.95764
rclavicle 9.54166e-014 -6.67916e-014
rhumerus -26.6189 17.8981 -96.1968
rradius 20.9953
rwrist 15.304
rhand -28.2187 -56.8835
rfingers 7.12502
rthumb -1.59712 -86.8573
lclavicle 9.54166e-014 -6.67916e-014
lhumerus -56.4682 -83.3101 130.976
lradius 85.9726
lwrist 30.3685
lhand -2.28683 -20.2562
lfingers 7.12502
lthumb 23.3983 8.34137
rfemur -29.7839 -5.05492 -3.14962
rtibia 76.7637
rfoot -11.0057 -10.6027
rtoes -9.99388
lfemur -53.8564 -24.1653 -29.7127
ltibia 59.6159
lfoot -21.1417 -7.05982
ltoes 17.4487
580
root 0.567138 15.49 3.24993 9.80258 -34.0281 13.3866
lowerback 0.298131 6.43963 8.75149
upperback 3.06933 8.50475 -1.76284
thorax 4.60612 4.56409 -6.27467
lowerneck 3.69984 -10.3061 -11.908
upperneck 46.9984 -19.0074 7.81118
head 20.118 -9.03949 3.12514
rclavicle -3.18055e-014 -1.90833e-014
rhumerus -27.0885 18.0983 -96.2407
rradius 21.1578
rwrist 15.546
rhand -27.9405 -57.0077
rfingers 7.12502
rthumb -1.32848 -86.9834
lclavicle -3.18055e-014 -1.90833e-014
lhumerus -59.1454 -83.0968 133.779
lradius 85.9904
lwrist 30.2869
lhand -2.53548 -20.3813
lfingers 7.12502
lthumb 23.1597 8.2465
rfemur -29.8259 -5.11435 -3.44125
rtibia 76.7815
rfoot -10.5823 -10.667
rtoes -9.40464
lfemur -53.8856 -24.2754 -29.8926
ltibia 59.6363
lfoot -21.1401 -6.9579
ltoes 17.9046
581
root 0.571423 15.487 3.25777 9.74707 -34.1688 13.5378
lowerback 0.24252 6.44436 8.55978
upperback 2.96752 8.51315 -1.76322
thorax 4.50015 4.55428 -6.17111
lowerneck 3.98523 -10.2273 -12.1632
upperneck 46.9575 -18.976 8.01571
head 20.0957 -9.06975 3.29303
rclavicle -5.08889e-014 3.18055e-015
rhumerus -27.3309 18.3938 -96.305
rradius 21.2257
rwrist 15.4727
rhand -27.6205 -57.3294
rfingers 7.12502
rthumb -1.01934 -87.3067
lclavicle -5.08889e-014 3.18055e-015
lhumerus -59.7185 -82.8032 134.545
lradius 85.9109
lwrist 30.2907
lhand -1.34516 -20.4606
lfingers 7.12502
lthumb 24.3013 8.01904
rfemur -29.8829 -5.09986 -3.66992
rtibia 76.8212
rfoot -10.6549 -10.543
rtoes -8.96836
lfemur -53.9216 -24.2988 -30.0459
ltibia 59.669
lfoot -21.1914 -6.81567
ltoes 17.9757
582
root 0.576303 15.4819 3.25526 9.71257 -34.3129 13.5535
lowerback 0.247232 6.45037 8.46706
upperback 2.98824 8.52141 -1.74422
thorax 4.5031 4.55549 -6.09939
lowerneck 3.82925 -10.2387 -12.3545
upperneck 47.0854 -19.0263 8.07061
head 20.2929 -9.11029 3.33183
rclavicle 6.99722e-014 9.54166e-015
rhumerus -27.0474 18.9265 -96.4136
rradius 20.9187
rwrist 14.7891
rhand -27.4827 -57.5071
rfingers 7.12502
rthumb -0.88625 -87.485
lclavicle 6.99722e-014 9.54166e-015
lhumerus -58.6013 -82.651 133.628
lradius 85.711
lwrist 29.9993
lhand -0.192879 -20.6564
lfingers 7.12502
lthumb 25.4056 7.67081
rfemur -29.9798 -5.00314 -3.72227
rtibia 76.8638
rfoot -10.8355 -10.4733
rtoes -9.76978
lfemur -53.9507 -24.2249 -30.077
ltibia 59.7189
lfoot -21.2656 -6.6768
ltoes 17.7293
583
root 0.581707 15.4785 3.23838 9.72698 -34.4028 13.3338
lowerback 0.495666 6.43663 8.57598
upperback 3.00498 8.51898 -1.69056
thorax 4.38889 4.55288 -6.13183
lowerneck 3.7625 -10.1742 -12.3825
upperneck 46.9875 -18.961 8.21297
head 20.2581 -9.07681 3.41368
rclavicle -7.15625e-015 4.13472e-014
rhumerus -26.7669 19.4405 -96.5485
rradius 20.5797
rwrist 14.2352
rhand -27.4653 -57.9941
rfingers 7.12502
rthumb -0.869469 -87.9721
lclavicle -7.15625e-015 4.13472e-014
lhumerus -57.8136 -82.5875 132.927
lradius 85.5032
lwrist 29.399
lhand 0.18765 -20.8995
lfingers 7.12502
lthumb 25.7701 7.37532
rfemur -30.1342 -4.81682 -3.46703
rtibia 76.9774
rfoot -10.607 -10.7086
rtoes -10.0364
lfemur -54.0025 -24.2081 -29.7938
ltibia 59.7944
lfoot -21.3028 -6.54661
ltoes 17.5645
